# File created by Blade
# Date/Time:  Wed Jan 21 17:47:32 2015
# Frame Rate: 120.000 fps
#------------------------------------------------------
:FULLY-SPECIFIED
:DEGREES
1483
root 20.260502 28.689911 -20.333485 -65.341108 66.823643 -124.790016
Spine 70.929595 -31.584034 -35.925949
Head -13.119879 -37.413228 50.661925
LeftShoulder 25.370118 -40.034145 21.836937
LeftArm 13.871518 5.856166 -10.227925
LeftForeArm -23.689295 -0.000000 -0.778687
LeftHand -9.162198 -0.000000 11.969111
LeftHandThumb1 -26.253704 0.000000 33.147579
RightShoulder -20.049849 -15.789658 -4.019912
RightArm -43.956212 39.259119 13.148180
RightForeArm 7.880612 0.000000 6.393013
RightHand -20.387127 0.000000 -20.979515
RightHandThumb1 -24.326973 -0.000000 -32.862282
LeftUpLeg -28.029390 48.499532 -7.812564
LeftLeg -2.902048 -0.000000 0.000000
LeftFoot -43.146362 11.381546 -29.208132
LeftToeBase 25.015641 -0.000000 -0.000000
RightUpLeg -111.156949 17.229130 5.442468
RightLeg 51.861967 -0.000000 -0.000000
RightFoot -15.849283 -16.090159 13.285658
RightToeBase 23.009911 -0.000000 -0.000000
1484
root 20.279540 28.685866 -20.349704 -65.407369 66.644316 -124.866228
Spine 70.956331 -31.590931 -36.033209
Head -12.835248 -37.382560 50.559314
LeftShoulder 25.359133 -40.088748 21.801328
LeftArm 13.821195 6.082203 -10.198026
LeftForeArm -23.449741 -0.000000 -0.779934
LeftHand -9.272551 -0.000000 11.674407
LeftHandThumb1 -26.253704 0.000000 33.147579
RightShoulder -19.918267 -15.693384 -4.080172
RightArm -44.139463 39.180220 12.921441
RightForeArm 7.886264 0.000000 6.439792
RightHand -20.430898 -0.000000 -21.116801
RightHandThumb1 -24.326973 -0.000000 -32.862282
LeftUpLeg -28.022906 48.710901 -7.715618
LeftLeg -2.973981 -0.000000 0.000000
LeftFoot -42.964991 11.186646 -29.088739
LeftToeBase 24.648278 -0.000000 -0.000000
RightUpLeg -111.139966 17.304305 5.775693
RightLeg 52.033773 -0.000000 -0.000000
RightFoot -15.867520 -16.301603 12.867318
RightToeBase 23.166972 -0.000000 -0.000000
1485
root 20.297905 28.683820 -20.367448 -65.363543 66.469974 -124.841715
Spine 70.990841 -31.592107 -36.187089
Head -12.604901 -37.366586 50.490105
LeftShoulder 25.231751 -40.164192 21.843727
LeftArm 13.782962 6.253738 -10.234188
LeftForeArm -23.208920 -0.000000 -0.742866
LeftHand -9.316827 -0.000000 11.535281
LeftHandThumb1 -26.253704 0.000000 33.147579
RightShoulder -19.852555 -15.627638 -4.080503
RightArm -44.172120 39.241223 12.702057
RightForeArm 7.853563 0.000000 6.500911
RightHand -20.520065 -0.000000 -21.383664
RightHandThumb1 -24.326973 -0.000000 -32.862282
LeftUpLeg -28.054726 48.959162 -7.678299
LeftLeg -3.046580 -0.000000 0.000000
LeftFoot -42.737127 10.950473 -29.038396
LeftToeBase 24.807942 -0.000000 -0.000000
RightUpLeg -111.125600 17.410493 6.162898
RightLeg 52.217363 -0.000000 -0.000000
RightFoot -15.815784 -16.427777 12.730673
RightToeBase 22.943786 -0.000000 -0.000000
1486
root 20.320530 28.682205 -20.383225 -65.310932 66.259281 -124.767718
Spine 71.033635 -31.542825 -36.326571
Head -12.424779 -37.271847 50.446652
LeftShoulder 25.136033 -40.119146 21.899415
LeftArm 13.695794 6.310615 -10.217240
LeftForeArm -22.999209 -0.000000 -0.682947
LeftHand -9.322238 -0.000000 11.338665
LeftHandThumb1 -26.253704 0.000000 33.147579
RightShoulder -19.724299 -15.449642 -4.104558
RightArm -44.273815 39.168470 12.457408
RightForeArm 7.872441 0.000000 6.589980
RightHand -20.565834 0.000000 -21.564717
RightHandThumb1 -24.326973 -0.000000 -32.862282
LeftUpLeg -27.977562 49.171866 -7.508155
LeftLeg -3.129372 -0.000000 0.000000
LeftFoot -42.586529 10.808693 -29.059364
LeftToeBase 24.750004 -0.000000 -0.000000
RightUpLeg -111.030825 17.560040 6.615677
RightLeg 52.346405 -0.000000 -0.000000
RightFoot -15.751580 -16.612949 12.721464
RightToeBase 22.525626 -0.000000 -0.000000
1487
root 20.343718 28.683115 -20.400022 -65.269528 66.033661 -124.722642
Spine 71.060573 -31.505438 -36.438841
Head -12.248883 -37.175933 50.416893
LeftShoulder 25.130872 -40.154956 21.877977
LeftArm 13.554971 6.542058 -10.175287
LeftForeArm -22.836004 -0.000000 -0.628607
LeftHand -9.270395 -0.000000 11.077062
LeftHandThumb1 -26.253704 0.000000 33.147579
RightShoulder -19.628228 -15.456727 -4.075307
RightArm -44.201521 39.301317 12.334222
RightForeArm 7.841851 -0.000000 6.605197
RightHand -20.594287 -0.000000 -21.786717
RightHandThumb1 -24.326973 -0.000000 -32.862282
LeftUpLeg -27.926335 49.353234 -7.334129
LeftLeg -3.207978 -0.000000 0.000000
LeftFoot -42.468469 10.724891 -29.073159
LeftToeBase 24.679666 -0.000000 -0.000000
RightUpLeg -110.903428 17.737057 7.184736
RightLeg 52.454271 -0.000000 -0.000000
RightFoot -15.763652 -16.922782 12.620899
RightToeBase 22.251630 -0.000000 -0.000000
1488
root 20.368148 28.685550 -20.417006 -65.260857 65.767344 -124.679002
Spine 71.193797 -31.486451 -36.587762
Head -12.233392 -36.928673 50.388587
LeftShoulder 25.025194 -40.230926 21.880709
LeftArm 13.389888 6.826641 -10.126836
LeftForeArm -22.773159 -0.000000 -0.567105
LeftHand -9.250271 -0.000000 11.030967
LeftHandThumb1 -26.253704 0.000000 33.147579
RightShoulder -19.479159 -15.218934 -4.157332
RightArm -44.175288 39.298694 12.155238
RightForeArm 7.672190 -0.000000 6.664342
RightHand -20.616250 -0.000000 -21.931159
RightHandThumb1 -24.326973 -0.000000 -32.862282
LeftUpLeg -27.837659 49.544194 -7.083638
LeftLeg -3.269884 -0.000000 0.000000
LeftFoot -42.367923 10.680622 -29.154945
LeftToeBase 24.579160 -0.000000 -0.000000
RightUpLeg -110.693923 17.907009 7.854937
RightLeg 52.543808 -0.000000 -0.000000
RightFoot -15.779508 -17.114875 12.309465
RightToeBase 22.165520 -0.000000 -0.000000
1489
root 20.396380 28.689449 -20.436204 -65.203036 65.486828 -124.591273
Spine 71.247664 -31.422318 -36.695084
Head -12.104976 -36.666926 50.364914
LeftShoulder 24.976203 -40.173250 21.898480
LeftArm 13.305933 6.938846 -10.077726
LeftForeArm -22.633248 -0.000000 -0.641939
LeftHand -9.231407 0.000000 10.922520
LeftHandThumb1 -26.253704 0.000000 33.147579
RightShoulder -19.287981 -15.217570 -4.088255
RightArm -44.047957 39.389380 12.071947
RightForeArm 7.612284 0.000000 6.670094
RightHand -20.730642 -0.000000 -22.091225
RightHandThumb1 -24.326973 -0.000000 -32.862282
LeftUpLeg -27.750126 49.724540 -6.826720
LeftLeg -3.328114 -0.000000 0.000000
LeftFoot -42.290788 10.658333 -29.212541
LeftToeBase 24.527198 -0.000000 -0.000000
RightUpLeg -110.446780 18.109864 8.550016
RightLeg 52.572862 -0.000000 -0.000000
RightFoot -15.921495 -17.465133 11.879564
RightToeBase 22.556569 -0.000000 -0.000000
